<svg width="15" height="16" viewBox="0 0 15 16" fill="currentColor" xmlns="http://www.w3.org/2000/svg">
<path d="M0.0571289 10.9208C0.0571289 10.7658 0.118693 10.6172 0.228278 10.5076C0.337863 10.398 0.486493 10.3365 0.641469 10.3365H2.97883C3.13381 10.3365 3.28244 10.398 3.39202 10.5076C3.50161 10.6172 3.56317 10.7658 3.56317 10.9208V13.2582C3.56317 13.4132 3.50161 13.5618 3.39202 13.6714C3.28244 13.781 3.13381 13.8425 2.97883 13.8425H0.641469C0.486493 13.8425 0.337863 13.781 0.228278 13.6714C0.118693 13.5618 0.0571289 13.4132 0.0571289 13.2582L0.0571289 10.9208ZM1.22581 11.5052V12.6738H2.39449V11.5052H1.22581ZM5.31619 9.1678C5.31619 9.24453 5.33131 9.32052 5.36067 9.39141C5.39004 9.46231 5.43308 9.52673 5.48734 9.58099C5.5416 9.63525 5.60602 9.67829 5.67692 9.70766C5.74781 9.73702 5.8238 9.75214 5.90053 9.75214H8.23789C8.39287 9.75214 8.5415 9.69057 8.65109 9.58099C8.76067 9.4714 8.82224 9.32277 8.82224 9.1678V6.83043C8.82224 6.67546 8.76067 6.52683 8.65109 6.41724C8.5415 6.30766 8.39287 6.24609 8.23789 6.24609H5.90053C5.74556 6.24609 5.59693 6.30766 5.48734 6.41724C5.37776 6.52683 5.31619 6.67546 5.31619 6.83043V9.1678ZM6.48487 8.58346V7.41477H7.65355V8.58346H6.48487Z" fill="currentColor"/>
<path d="M1.81011 15.0115C1.65513 15.0115 1.5065 14.9499 1.39692 14.8403C1.28733 14.7307 1.22577 14.5821 1.22577 14.4271V13.2585C1.22577 13.1035 1.28733 12.9548 1.39692 12.8453C1.5065 12.7357 1.65513 12.6741 1.81011 12.6741C1.96509 12.6741 2.11372 12.7357 2.2233 12.8453C2.33289 12.9548 2.39445 13.1035 2.39445 13.2585V14.4271C2.39445 14.5821 2.33289 14.7307 2.2233 14.8403C2.11372 14.9499 1.96509 15.0115 1.81011 15.0115ZM1.81011 11.5054C1.65513 11.5054 1.5065 11.4439 1.39692 11.3343C1.28733 11.2247 1.22577 11.0761 1.22577 10.9211V1.57165C1.22577 1.41667 1.28733 1.26804 1.39692 1.15845C1.5065 1.04887 1.65513 0.987305 1.81011 0.987305C1.96509 0.987305 2.11372 1.04887 2.2233 1.15845C2.33289 1.26804 2.39445 1.41667 2.39445 1.57165V10.9211C2.39445 11.0761 2.33289 11.2247 2.2233 11.3343C2.11372 11.4439 1.96509 11.5054 1.81011 11.5054ZM10.5752 5.07769C10.5752 5.23266 10.6368 5.38129 10.7464 5.49088C10.856 5.60046 11.0046 5.66203 11.1596 5.66203H13.4969C13.6519 5.66203 13.8005 5.60046 13.9101 5.49088C14.0197 5.38129 14.0813 5.23266 14.0813 5.07769V2.74033C14.0813 2.58535 14.0197 2.43672 13.9101 2.32713C13.8005 2.21755 13.6519 2.15599 13.4969 2.15599H11.1596C11.0046 2.15599 10.856 2.21755 10.7464 2.32713C10.6368 2.43672 10.5752 2.58535 10.5752 2.74033V5.07769ZM11.7439 4.49335V3.32467H12.9126V4.49335H11.7439Z" fill="currentColor"/>
<path d="M12.3283 0.987305C12.1733 0.987305 12.0247 1.04887 11.9151 1.15845C11.8055 1.26804 11.7439 1.41667 11.7439 1.57165V2.74033C11.7439 2.81706 11.759 2.89305 11.7884 2.96394C11.8178 3.03484 11.8608 3.09926 11.9151 3.15352C11.9693 3.20778 12.0338 3.25082 12.1046 3.28019C12.1755 3.30955 12.2515 3.32467 12.3283 3.32467C12.405 3.32467 12.481 3.30955 12.5519 3.28019C12.6228 3.25082 12.6872 3.20778 12.7415 3.15352C12.7957 3.09926 12.8388 3.03484 12.8681 2.96394C12.8975 2.89305 12.9126 2.81706 12.9126 2.74033V1.57165C12.9126 1.41667 12.851 1.26804 12.7415 1.15845C12.6319 1.04887 12.4832 0.987305 12.3283 0.987305ZM12.3283 4.49335C12.1733 4.49335 12.0247 4.55491 11.9151 4.6645C11.8055 4.77408 11.7439 4.92271 11.7439 5.07769V14.4271C11.7439 14.5039 11.759 14.5799 11.7884 14.6508C11.8178 14.7216 11.8608 14.7861 11.9151 14.8403C11.9693 14.8946 12.0338 14.9376 12.1046 14.967C12.1755 14.9964 12.2515 15.0115 12.3283 15.0115C12.405 15.0115 12.481 14.9964 12.5519 14.967C12.6228 14.9376 12.6872 14.8946 12.7415 14.8403C12.7957 14.7861 12.8388 14.7216 12.8681 14.6508C12.8975 14.5799 12.9126 14.5039 12.9126 14.4271V5.07769C12.9126 4.92271 12.851 4.77408 12.7415 4.6645C12.6319 4.55491 12.4832 4.49335 12.3283 4.49335ZM7.0692 0.987305C6.91423 0.987305 6.7656 1.04887 6.65601 1.15845C6.54643 1.26804 6.48486 1.41667 6.48486 1.57165V6.83071C6.48486 6.98569 6.54643 7.13431 6.65601 7.2439C6.7656 7.35348 6.91423 7.41505 7.0692 7.41505C7.22418 7.41505 7.37281 7.35348 7.48239 7.2439C7.59198 7.13431 7.65354 6.98569 7.65354 6.83071V1.57165C7.65354 1.41667 7.59198 1.26804 7.48239 1.15845C7.37281 1.04887 7.22418 0.987305 7.0692 0.987305ZM7.0692 8.58373C6.91423 8.58373 6.7656 8.64529 6.65601 8.75488C6.54643 8.86446 6.48486 9.01309 6.48486 9.16807V14.4271C6.48486 14.5821 6.54643 14.7307 6.65601 14.8403C6.7656 14.9499 6.91423 15.0115 7.0692 15.0115C7.22418 15.0115 7.37281 14.9499 7.48239 14.8403C7.59198 14.7307 7.65354 14.5821 7.65354 14.4271V9.16807C7.65354 9.01309 7.59198 8.86446 7.48239 8.75488C7.37281 8.64529 7.22418 8.58373 7.0692 8.58373Z" fill="currentColor"/>
</svg>
