<svg width="16" height="16" viewBox="0 0 16 16" fill="none" xmlns="http://www.w3.org/2000/svg">
<path d="M13.4462 4.3966H12.6693V2.4019C12.6595 2.20788 12.6115 2.01771 12.528 1.84228C12.4445 1.66685 12.3273 1.50962 12.1829 1.37959C12.0386 1.24956 11.87 1.14928 11.6869 1.08451C11.5037 1.01973 11.3096 0.991731 11.1156 1.00211H4.72554C4.53933 0.993107 4.3533 1.02315 4.17939 1.09031C4.00549 1.15747 3.84755 1.26027 3.71573 1.39209C3.58391 1.52391 3.48111 1.68185 3.41395 1.85575C3.34679 2.02966 3.31675 2.21569 3.32575 2.4019V4.3966H2.40189C2.21568 4.3876 2.02965 4.41764 1.85574 4.4848C1.68183 4.55196 1.5239 4.65475 1.39208 4.78658C1.26025 4.9184 1.15746 5.07634 1.0903 5.25024C1.02314 5.42415 0.993093 5.61018 1.00209 5.79639V11.1296C0.99174 11.3229 1.01985 11.5163 1.08479 11.6986C1.14973 11.881 1.25021 12.0486 1.38041 12.1918C1.51061 12.335 1.66794 12.451 1.84329 12.533C2.01863 12.6149 2.2085 12.6613 2.40189 12.6694H3.33275V13.5302C3.33275 13.92 3.4876 14.2939 3.76323 14.5695C4.03887 14.8451 4.41272 15 4.80253 15H11.1996C11.5894 15 11.9632 14.8451 12.2389 14.5695C12.5145 14.2939 12.6693 13.92 12.6693 13.5302V12.6694H13.4462C13.8521 12.6572 14.2382 12.4916 14.5266 12.2057C14.815 11.9199 14.9842 11.5353 15 11.1296V5.79639C14.9901 5.60236 14.9421 5.41219 14.8586 5.23677C14.7752 5.06134 14.6579 4.90411 14.5136 4.77408C14.3692 4.64405 14.2007 4.54377 14.0175 4.47899C13.8344 4.41422 13.6402 4.38622 13.4462 4.3966ZM4.18662 2.4019C4.17926 2.32867 4.18803 2.25473 4.21231 2.18526C4.23658 2.11579 4.27578 2.05248 4.32715 1.99978C4.37852 1.94708 4.4408 1.90627 4.50963 1.88021C4.57845 1.85416 4.65215 1.8435 4.72554 1.84898H11.1156C11.4235 1.84898 11.8155 2.03795 11.8155 2.4019V4.3966H4.18662V2.4019ZM11.8155 13.5302C11.8164 13.6117 11.8012 13.6925 11.7706 13.7681C11.7401 13.8436 11.6949 13.9123 11.6376 13.9703C11.5803 14.0282 11.5121 14.0742 11.4369 14.1056C11.3617 14.137 11.281 14.1531 11.1996 14.1531H4.80253C4.72105 14.1531 4.64039 14.137 4.5652 14.1056C4.49001 14.0742 4.4218 14.0282 4.36452 13.9703C4.30724 13.9123 4.26201 13.8436 4.23148 13.7681C4.20094 13.6925 4.18569 13.6117 4.18662 13.5302V10.7306C4.18475 10.6486 4.19931 10.567 4.22942 10.4906C4.25954 10.4143 4.30461 10.3447 4.36199 10.2861C4.41937 10.2274 4.4879 10.1807 4.56355 10.1489C4.6392 10.1171 4.72045 10.1007 4.80253 10.1007H11.1996C11.281 10.1007 11.3617 10.1169 11.4369 10.1483C11.5121 10.1797 11.5803 10.2257 11.6376 10.2836C11.6949 10.3415 11.7401 10.4103 11.7706 10.4858C11.8012 10.5613 11.8164 10.6422 11.8155 10.7236V13.5302ZM14.1531 11.1296C14.1416 11.3114 14.0641 11.4828 13.9353 11.6116C13.8065 11.7405 13.6351 11.8179 13.4532 11.8295H12.6693V10.7446C12.6693 10.3548 12.5145 9.98099 12.2389 9.70535C11.9632 9.42971 11.5894 9.27486 11.1996 9.27486H4.80253C4.41272 9.27486 4.03887 9.42971 3.76323 9.70535C3.4876 9.98099 3.33275 10.3548 3.33275 10.7446V11.8155H2.40189C2.31945 11.8069 2.2396 11.7818 2.16711 11.7416C2.09462 11.7014 2.03098 11.647 1.98001 11.5817C1.92904 11.5163 1.89178 11.4414 1.87047 11.3613C1.84915 11.2812 1.84422 11.1976 1.85597 11.1156V5.79639C1.8497 5.7228 1.85947 5.64873 1.88459 5.57928C1.90971 5.50983 1.94959 5.44665 2.00148 5.39409C2.05337 5.34154 2.11603 5.30086 2.18516 5.27486C2.25428 5.24885 2.32822 5.23814 2.40189 5.24347H13.4462C13.7612 5.24347 14.1461 5.43244 14.1461 5.79639L14.1531 11.1296ZM3.6547 6.51728H3.03879C2.9888 6.50819 2.94358 6.48184 2.91102 6.44283C2.87847 6.40382 2.86063 6.35462 2.86063 6.30381C2.86063 6.253 2.87847 6.2038 2.91102 6.16479C2.94358 6.12578 2.9888 6.09943 3.03879 6.09034H3.67569C3.70696 6.08466 3.7391 6.08591 3.76983 6.09401C3.80055 6.10212 3.82913 6.11687 3.85353 6.13723C3.87793 6.1576 3.89755 6.18307 3.91102 6.21185C3.92449 6.24064 3.93147 6.27203 3.93147 6.30381C3.93147 6.33559 3.92449 6.36698 3.91102 6.39577C3.89755 6.42455 3.87793 6.45002 3.85353 6.47039C3.82913 6.49075 3.80055 6.5055 3.76983 6.51361C3.7391 6.52171 3.70696 6.52296 3.67569 6.51728H3.6547ZM5.20147 6.51728H4.50157C4.4703 6.52296 4.43817 6.52171 4.40744 6.51361C4.37671 6.5055 4.34814 6.49075 4.32374 6.47039C4.29934 6.45002 4.27971 6.42455 4.26624 6.39577C4.25277 6.36698 4.24579 6.33559 4.24579 6.30381C4.24579 6.27203 4.25277 6.24064 4.26624 6.21185C4.27971 6.18307 4.29934 6.1576 4.32374 6.13723C4.34814 6.11687 4.37671 6.10212 4.40744 6.09401C4.43817 6.08591 4.4703 6.08466 4.50157 6.09034H5.20147C5.25146 6.09943 5.29667 6.12578 5.32923 6.16479C5.36179 6.2038 5.37962 6.253 5.37962 6.30381C5.37962 6.35462 5.36179 6.40382 5.32923 6.44283C5.29667 6.48184 5.25146 6.50819 5.20147 6.51728ZM12.2004 8.42799H3.67569C3.6257 8.4189 3.58049 8.39255 3.54793 8.35354C3.51537 8.31453 3.49754 8.26533 3.49754 8.21452C3.49754 8.16371 3.51537 8.11451 3.54793 8.0755C3.58049 8.03649 3.6257 8.01014 3.67569 8.00105H12.2004C12.2504 8.01014 12.2956 8.03649 12.3282 8.0755C12.3607 8.11451 12.3786 8.16371 12.3786 8.21452C12.3786 8.26533 12.3607 8.31453 12.3282 8.35354C12.2956 8.39255 12.2504 8.4189 12.2004 8.42799Z" fill="#292B3E"/>
</svg>
