<svg width="16" height="16" viewBox="0 0 16 16" fill="none" xmlns="http://www.w3.org/2000/svg">
<path d="M12.2418 12.2247C13.0772 11.3898 13.6462 10.326 13.8769 9.16772C14.1075 8.00944 13.9895 6.80877 13.5377 5.71758C13.0859 4.62639 12.3206 3.69371 11.3387 3.03749C10.3568 2.38128 9.20227 2.03102 8.02124 2.03102C6.84022 2.03102 5.68573 2.38128 4.7038 3.03749C3.72186 3.69371 2.9566 4.62639 2.5048 5.71758C2.05301 6.80877 1.93498 8.00944 2.16564 9.16772C2.3963 10.326 2.9653 11.3898 3.80066 12.2247C4.92026 13.3436 6.43836 13.9722 8.02124 13.9722C9.60413 13.9722 11.1222 13.3436 12.2418 12.2247ZM12.9583 12.9412C11.9803 13.9226 10.7331 14.5917 9.37454 14.8637C8.01601 15.1358 6.60731 14.9986 5.32681 14.4695C4.04632 13.9404 2.95164 13.0432 2.1814 11.8915C1.41115 10.7398 1 9.3855 1 8C1 6.6145 1.41115 5.26016 2.1814 4.10849C2.95164 2.95683 4.04632 2.05963 5.32681 1.53053C6.60731 1.00143 8.01601 0.864223 9.37454 1.13628C10.7331 1.40834 11.9803 2.07744 12.9583 3.05883C14.2658 4.37088 15 6.14768 15 8C15 9.85232 14.2658 11.6291 12.9583 12.9412Z" fill="white"/>
<path d="M10.2551 6.16703C10.2901 6.11964 10.3351 6.08028 10.387 6.05166C10.439 6.02304 10.4966 6.00584 10.5559 6.00125C10.6153 5.99665 10.6749 6.00478 10.7307 6.02505C10.7866 6.04533 10.8373 6.07728 10.8794 6.11871C10.9215 6.16013 10.9539 6.21004 10.9745 6.265C10.9951 6.31996 11.0034 6.37867 10.9987 6.43707C10.9941 6.49547 10.9766 6.55218 10.9475 6.6033C10.9184 6.65441 10.8784 6.69871 10.8303 6.73315L7.64049 9.87255C7.552 9.95442 7.43512 10 7.31367 10C7.19222 10 7.07534 9.95442 6.98685 9.87255L5.16971 8.09699C5.12156 8.06255 5.08157 8.01825 5.05249 7.96713C5.02341 7.91602 5.00593 7.85931 5.00127 7.8009C4.9966 7.7425 5.00485 7.6838 5.02546 7.62884C5.04606 7.57388 5.07852 7.52397 5.12061 7.48254C5.1627 7.44112 5.21341 7.40917 5.26926 7.38889C5.3251 7.36861 5.38475 7.36049 5.44408 7.36508C5.50342 7.36968 5.56105 7.38688 5.61298 7.4155C5.66492 7.44412 5.70993 7.48348 5.74492 7.53087L7.27445 9.0684L10.2551 6.16703Z" fill="white"/>
</svg>
