<svg width="17" height="17" viewBox="0 0 17 17" fill="none" xmlns="http://www.w3.org/2000/svg">
<path d="M12.0353 4.35979C12.5029 4.19697 12.8626 4.01214 13.0871 3.82841C13.2411 3.70299 13.2895 3.62048 13.2895 3.58747C13.2895 3.55447 13.2411 3.47196 13.0871 3.34544C12.8626 3.16281 12.504 2.97798 12.0353 2.81516C11.0099 2.4598 9.59073 2.25187 8.0692 2.25187C6.54766 2.25187 5.12845 2.4609 4.10309 2.81516C3.63552 2.97798 3.27576 3.16281 3.05133 3.34654C2.89731 3.47196 2.8489 3.55337 2.8489 3.58747C2.8489 3.62048 2.89731 3.70299 3.05133 3.82951C3.27576 4.01214 3.63442 4.19697 4.10309 4.35979C5.12845 4.71515 6.54766 4.92308 8.0692 4.92308C9.59073 4.92308 11.0099 4.71405 12.0353 4.35979ZM2.51335 8.06406V10.0015C3.08434 10.6032 4.62017 11.336 6.49596 11.5549C9.24638 11.875 11.8505 11.2743 13.6184 10.0763L13.625 8.09596C11.7416 9.20383 9.09015 9.6692 6.40904 9.35566C4.74889 9.16313 3.33517 8.66255 2.51225 8.06406H2.51335ZM2.51335 6.85387C3.08544 7.45457 4.62017 8.18728 6.49596 8.40511C9.25188 8.72636 11.8615 8.12347 13.6294 6.91988L13.6371 4.72395C12.5117 5.38405 10.4401 5.82632 8.0692 5.82632C5.70824 5.82632 3.64322 5.38625 2.51665 4.73165C2.51517 5.43869 2.51407 6.14573 2.51335 6.85277V6.85387ZM2.51555 11.2138L2.51995 12.8399L2.50345 12.7277C2.8401 13.841 4.98983 14.7355 8.19132 14.7355C9.93508 14.7355 11.3015 14.4714 12.3522 13.9522C12.647 13.8058 12.8714 13.6826 13.0915 13.522C13.2378 13.4153 13.3335 13.3504 13.4908 13.2117C13.6537 13.0676 13.9045 13.1028 14.0497 13.2668C14.1938 13.4285 14.2125 13.6925 14.0497 13.8377C13.8737 13.9918 13.7912 14.0611 13.6195 14.1865C13.3632 14.3735 13.0717 14.5683 12.735 14.7355C11.5754 15.3087 10.3939 15.6508 8.19132 15.6508C4.52226 15.6508 2.09638 14.4901 1.63211 12.9554L1.61561 12.9004V12.8432L1.60901 10.5207C1.60638 8.23605 1.60822 5.95136 1.61451 3.66669C1.61172 3.64037 1.61025 3.61394 1.61011 3.58747C1.61121 2.35089 4.50245 1.34863 8.0692 1.34863C11.6359 1.34863 14.5272 2.35089 14.5272 3.58747C14.5275 3.63578 14.5235 3.68402 14.5151 3.7316C14.5257 3.76617 14.5309 3.80216 14.5305 3.83831L14.5052 11.666C14.5041 11.8838 14.3039 12.0599 14.0574 12.0588C13.811 12.0588 13.6118 11.8816 13.6129 11.6627V11.2512C11.7317 12.3525 9.08465 12.8168 6.40904 12.5054C4.75109 12.3118 3.33737 11.8123 2.51445 11.2138H2.51555ZM12.5711 6.83737C12.4686 6.83825 12.3699 6.79844 12.2967 6.72667C12.2235 6.6549 12.1817 6.55703 12.1805 6.45451C12.1805 6.24328 12.3566 6.07275 12.5722 6.07275C12.7878 6.07275 12.9638 6.24328 12.9638 6.45451C12.9638 6.66684 12.7878 6.83737 12.5722 6.83737H12.5711ZM12.5711 9.98715C12.4686 9.98803 12.3699 9.94822 12.2967 9.87645C12.2235 9.80468 12.1817 9.70681 12.1805 9.60429C12.1805 9.39306 12.3566 9.22144 12.5722 9.22144C12.7878 9.22144 12.9638 9.39306 12.9638 9.60429C12.9638 9.81553 12.7878 9.98715 12.5722 9.98715H12.5711ZM12.5711 13.1776C12.5202 13.1781 12.4698 13.1685 12.4226 13.1494C12.3755 13.1304 12.3325 13.1022 12.2963 13.0666C12.26 13.0309 12.2311 12.9884 12.2113 12.9416C12.1914 12.8948 12.181 12.8445 12.1805 12.7937C12.1805 12.5824 12.3566 12.4108 12.5722 12.4108C12.7878 12.4108 12.9638 12.5824 12.9638 12.7937C12.9638 13.0049 12.7878 13.1765 12.5722 13.1765L12.5711 13.1776Z" fill="white"/>
</svg>
