<svg width="24" height="24" viewBox="0 0 24 24" fill="none" xmlns="http://www.w3.org/2000/svg">
<path d="M3 20.2685C3.00073 20.4625 3.07964 20.6484 3.21948 20.7854C3.35932 20.9225 3.54873 20.9996 3.74631 21H20.2551C20.4524 20.9993 20.6415 20.922 20.781 20.785C20.9206 20.6479 20.9993 20.4623 21 20.2685V9C21 8.44772 20.5523 8 20 8H4C3.44772 8 3 8.44772 3 9V20.2685ZM11 5C11 5.55228 10.5523 6 10 6H3.9819C3.57325 6 3.33718 5.53639 3.57754 5.20591L4.76954 3.56695C5.04922 3.20121 5.47846 3 5.94507 3H11V5V5ZM20.3739 5.19341C20.6289 5.52191 20.3948 6 19.9789 6H14C13.4477 6 13 5.55228 13 5V3H17.9386C18.4039 3 18.8331 3.2189 19.1114 3.56697L20.3739 5.19341Z" fill="#004CAA"/>
<path d="M13.7891 18.5773L13.1926 17.3844C12.7862 17.5877 12.3345 17.6836 11.8805 17.6632C11.4265 17.6428 10.9853 17.5066 10.5987 17.2677C10.2122 17.0288 9.89311 16.6951 9.67183 16.2981C9.45056 15.9012 9.33442 15.4543 9.33447 14.9999H10.6681L9.22716 12.1189C8.53774 12.7818 8.10875 13.6699 8.01803 14.6219C7.92732 15.574 8.18087 16.5271 8.73271 17.3083C9.28455 18.0894 10.0981 18.6469 11.0258 18.8796C11.9535 19.1123 12.9339 19.0055 13.7891 18.5773ZM10.2115 11.4225L10.808 12.6154C11.2145 12.4122 11.6662 12.3162 12.1201 12.3366C12.5741 12.357 13.0154 12.4932 13.4019 12.7321C13.7885 12.971 14.1076 13.3048 14.3288 13.7017C14.5501 14.0986 14.6662 14.5455 14.6662 14.9999H13.3326L14.7728 17.8809C15.4623 17.218 15.8912 16.33 15.982 15.3779C16.0727 14.4258 15.8191 13.4727 15.2673 12.6916C14.7155 11.9104 13.9019 11.3529 12.9742 11.1202C12.0465 10.8875 11.0661 10.995 10.2109 11.4232L10.2115 11.4225Z" fill="white"/>
</svg>
