<svg width="28" height="28" viewBox="0 0 28 28" fill="none" xmlns="http://www.w3.org/2000/svg">
<path d="M25.9741 5.96575C25.8891 5.10312 25.2733 4.39619 24.4517 4.21797C22.7859 3.94751 21.1406 3.55634 19.5279 3.04736C17.9487 2.37851 16.468 1.48458 15.1288 0.39161C14.4268 -0.130537 13.4799 -0.130537 12.7775 0.39161C11.5098 1.60259 9.99509 2.50426 8.34507 3.03017C6.81722 3.68273 5.20318 4.09472 3.5569 4.25236C2.71715 4.39244 2.08809 5.1225 2.05116 6.00015C2.01423 6.87779 2 10.3865 2 14.2472C2 21.2365 9.98492 28 13.9787 28C17.971 28 24.7393 23.2291 25.8219 14.3529C26.0928 9.1102 25.9741 5.9645 25.9741 5.9645V5.96575ZM21.6261 11.3645L13.2846 19.49C12.9092 19.8595 12.3356 19.9177 11.8978 19.63L11.679 19.4371L7.07636 14.4933C6.64649 14.0109 6.67646 13.2599 7.14356 12.8159C7.61066 12.3719 8.3378 12.4032 8.76767 12.8853L12.5578 16.9918L20.0695 9.65235C20.5369 9.20837 21.2644 9.23964 21.6942 9.72239C22.1241 10.2051 22.0938 10.9565 21.6264 11.4004V11.3645H21.6261Z" fill="#6D72F0"/>
</svg>
