<svg width="28" height="28" viewBox="0 0 28 28" fill="none" xmlns="http://www.w3.org/2000/svg">
<path d="M20.8501 11.5483H8.49921C8.71145 9.79563 7.17094 2.67017 12.8607 2.49666C18.2707 2.29568 17.4287 8.99857 17.4287 8.99857L20.0783 9.01605C20.0783 9.01605 20.8482 0.0436915 12.8607 0C4.14344 0.43317 6.18875 10.1601 5.92297 11.5483C5.98479 11.5483 6.0651 11.5483 6.14987 11.5483C4.4105 11.5483 3 12.9302 3 14.6329V24.9154C3 26.6187 4.41113 28 6.14987 28H20.8501C22.5895 28 24 26.6181 24 24.9154V14.6329C24 12.9302 22.5889 11.5483 20.8501 11.5483ZM14.5497 20.5175V22.8594C14.5497 23.4255 14.0781 23.8874 13.5 23.8874C12.9219 23.8874 12.4503 23.4255 12.4503 22.8594V20.5175C11.825 20.1611 11.4005 19.5051 11.4005 18.7461C11.4005 17.6102 12.3406 16.6895 13.5006 16.6895C14.6606 16.6895 15.6008 17.6102 15.6008 18.7461C15.6001 19.5051 15.1756 20.1611 14.5497 20.5175Z" fill="#6D72F0"/>
</svg>
