<svg width="24" height="24" viewBox="0 0 24 24" fill="currentColor" xmlns="http://www.w3.org/2000/svg">
<path fill-rule="evenodd" clip-rule="evenodd" d="M3 4C3 3.44772 3.44772 3 4 3H9V8.14287H3V4ZM3 9.42858H9V14.5714H3V9.42858ZM3 15.8571V20C3 20.5523 3.44772 21 4 21H9V15.8571H3Z" />
<path fill-rule="evenodd" clip-rule="evenodd" d="M10 3H16V8.14287H10V3ZM10 9.42858H16V14.5714H10V9.42858ZM10 15.8571V21H16V15.8571H10Z" />
<path d="M18 3H20C20.5523 3 21 3.44772 21 4V20C21 20.5523 20.5523 21 20 21H18V3Z" />
</svg>
