<svg width="24" height="24" viewBox="0 0 24 24" fill="currentColor" xmlns="http://www.w3.org/2000/svg">
<path fill-rule="evenodd" clip-rule="evenodd" d="M3 4C3 3.44772 3.44772 3 4 3H8V8.14287H3V4ZM3 9.42858H8V14.5714H3V9.42858ZM3 15.8571V20C3 20.5523 3.44772 21 4 21H8V15.8571H3Z"/>
<path fill-rule="evenodd" clip-rule="evenodd" d="M9 3H15V8.14287H9V3ZM9 9.42858H15V14.5714H9V9.42858ZM9 15.8571V21H15V15.8571H9Z"/>
<path fill-rule="evenodd" clip-rule="evenodd" d="M16 3H20C20.5523 3 21 3.44772 21 4V8.14287H16V3ZM16 9.42858H21V14.5714H16V9.42858ZM16 15.8571V21H20C20.5523 21 21 20.5523 21 20V15.8571H16Z"/>
</svg>
