
<svg width="24" height="24" viewBox="0 0 24 24" fill="currentColor" xmlns="http://www.w3.org/2000/svg">
<path fill-rule="evenodd" clip-rule="evenodd" d="M8 3H14V8.14287H8V3ZM8 9.42858H14V14.5714H8V9.42858ZM8 15.8571V21H14V15.8571H8Z" />
<path fill-rule="evenodd" clip-rule="evenodd" d="M15 3H20C20.5523 3 21 3.44772 21 4V8.14287H15V3ZM15 9.42858H21V14.5714H15V9.42858ZM15 15.8571V21H20C20.5523 21 21 20.5523 21 20V15.8571H15Z" />
<path d="M3 4C3 3.44772 3.44772 3 4 3H6V21H4C3.44772 21 3 20.5523 3 20V4Z" />
</svg>
