<svg t="1733471820459" class="icon" viewBox="0 0 1024 1024" version="1.1" xmlns="http://www.w3.org/2000/svg" p-id="3613" xmlns:xlink="http://www.w3.org/1999/xlink" width="200" height="200">
<path fill-rule="evenodd" clip-rule="evenodd" d="M110.28 764.028l404.348 236v-113.28L211.76 707.384v-67.652l302.868 179.356v-118.52l-303.128-179.36 0.524-65.552 302.604 178.832v-115.472L110.28 271.44zM529.572 10.404l-96.76 60.572 304.44 180.932-55.852 33.828-310.732-181.72-94.4 58.996L582.28 345.52l-57.428 35.4-309.944-185.656-94.4 57.428 405.92 246.228 409.848-245.44zM945.72 394.292V277.868L537.436 519.8l1.58 297.288 312.304-185.224v71.584l-311.164 181.724-0.784 116.424 406.348-237.568v-302.08l-309.16 184.08V579.16z" p-id="3614" fill="currentColor"></path>
</svg>