<svg t="1720161815651" class="icon" viewBox="0 0 1024 1024" version="1.1" xmlns="http://www.w3.org/2000/svg" p-id="9571" xmlns:xlink="http://www.w3.org/1999/xlink" width="200" height="200"><path d="M415.424 544.64a64 64 0 0 1 64 64v256a64 64 0 0 1-64 64h-256a64 64 0 0 1-64-64v-256a64 64 0 0 1 64-64z m448 0a64 64 0 0 1 64 64v256a64 64 0 0 1-64 64h-256a64 64 0 0 1-64-64v-256a64 64 0 0 1 64-64h256z m0-448a64 64 0 0 1 64 64v256a64 64 0 0 1-64 64h-256a64 64 0 0 1-64-64v-256a64 64 0 0 1 64-64zM441.728 109.44a30.528 30.528 0 0 1 43.072-2.944c13.504 11.712 15.36 32 4.288 46.08L250.688 454.208a30.528 30.528 0 0 1-43.968 4.096 33.472 33.472 0 0 1-7.424-9.152L94.528 289.024a32.448 32.448 0 0 1 8.96-44.672 31.552 31.552 0 0 1 44.096 8.896l81.728 124.8 211.52-267.456a30.528 30.528 0 0 1 0.448-0.576z" fill="currentColor" p-id="9572"></path></svg>