<svg width="24" height="24" viewBox="0 0 24 24" fill="none" xmlns="http://www.w3.org/2000/svg">
<path fill-rule="evenodd" clip-rule="evenodd" d="M7 5.33366V8.66699H17V5.33366H18.6725C19.1292 5.33366 19.5 5.70449 19.5 6.16116V19.5062C19.4998 19.7256 19.4125 19.9359 19.2574 20.091C19.1022 20.2462 18.8919 20.3334 18.6725 20.3337H5.3275C5.1081 20.3334 4.89775 20.2462 4.74261 20.091C4.58747 19.9359 4.50022 19.7256 4.5 19.5062V6.16116C4.5 5.70449 4.87083 5.33366 5.3275 5.33366H7ZM8.66667 3.66699H15.3333V7.00033H8.66667V3.66699ZM9.5 11.1664H11.1667V16.1664H9.5V11.1664ZM14.5688 11.1664H12.9021V16.1664H14.5688V11.1664Z" fill="#004CAA"/>
</svg>
