<svg t="1720160876299" class="icon" viewBox="0 0 1024 1024" fill="none" version="1.1" xmlns="http://www.w3.org/2000/svg" p-id="6118" xmlns:xlink="http://www.w3.org/1999/xlink" width="200" height="200">
<path d="M121.904762 330.947048l359.619048 154.575238v451.779047L165.351619 796.94019A73.142857 73.142857 0 0 1 121.904762 730.063238v-399.11619z m780.190476-9.337905v408.454095a73.142857 73.142857 0 0 1-43.446857 66.852572L554.666667 931.888762V481.694476L902.095238 321.584762zM541.696 86.308571l316.952381 140.751239c11.02019 4.87619 20.406857 12.312381 27.599238 21.382095l-371.151238 171.885714-382.537143-164.425143c7.558095-12.483048 18.895238-22.674286 32.792381-28.842666l316.952381-140.751239a73.142857 73.142857 0 0 1 59.392 0z" p-id="6119" fill="currentColor"></path>
</svg>