<svg width="24" height="24" viewBox="0 0 24 24" fill="none" xmlns="http://www.w3.org/2000/svg">
<g clip-path="url(#clip0_2280_244448)">
<path fill-rule="evenodd" clip-rule="evenodd" d="M2 4V8H22V4C22 3.73478 21.8946 3.48043 21.7071 3.29289C21.5196 3.10536 21.2652 3 21 3H3C2.73478 3 2.48043 3.10536 2.29289 3.29289C2.10536 3.48043 2 3.73478 2 4ZM2.29289 20.7071C2.48043 20.8946 2.73478 21 3 21H21C21.2652 21 21.5196 20.8946 21.7071 20.7071C21.8946 20.5196 22 20.2652 22 20V10H2V20C2 20.2652 2.10536 20.5196 2.29289 20.7071ZM17 13.3998L11.4627 19L8 15.4995L9.38431 14.0997L11.4627 16.2004L15.6157 12L17 13.3998Z" fill="#004CAA"/>
</g>
<defs>
<clipPath id="clip0_2280_244448">
<rect width="24" height="24" fill="currentColor"/>
</clipPath>
</defs>
</svg>
