<svg width="24" height="24" viewBox="0 0 24 24" fill="none" xmlns="http://www.w3.org/2000/svg">
<path fill-rule="evenodd" clip-rule="evenodd" d="M6 4V8H18V4H20.007C20.555 4 21 4.445 21 4.993V21.007C20.9997 21.2703 20.895 21.5227 20.7089 21.7089C20.5227 21.895 20.2703 21.9997 20.007 22H3.993C3.72972 21.9997 3.4773 21.895 3.29114 21.7089C3.10497 21.5227 3.00026 21.2703 3 21.007V4.993C3 4.445 3.445 4 3.993 4H6ZM8 2H16V6H8V2ZM13.3335 19.0001L10 15.6663L11.334 14.3332L13.3335 16.3338L16.667 13.0001L18 14.3332L13.3335 19.0001ZM12 10.0001H6V12.0001H12V10.0001Z" fill="currentColor"/>
</svg>
