<svg width="24" height="24" viewBox="0 0 24 24" fill="none" xmlns="http://www.w3.org/2000/svg">
<path fill-rule="evenodd" clip-rule="evenodd" d="M3.21948 20.7854C3.07964 20.6484 3.00073 20.4625 3 20.2685V9C3 8.44772 3.44772 8 4 8H20C20.5523 8 21 8.44772 21 9V20.2685C20.9993 20.4623 20.9206 20.6479 20.781 20.785C20.6415 20.922 20.4524 20.9993 20.2551 21H3.74631C3.54873 20.9996 3.35932 20.9225 3.21948 20.7854ZM10 6C10.5523 6 11 5.55228 11 5V3H5.94507C5.47846 3 5.04922 3.20121 4.76954 3.56695L3.57754 5.20591C3.33718 5.53639 3.57325 6 3.9819 6H10ZM19.9789 6C20.3948 6 20.6289 5.52191 20.3739 5.19341L19.1114 3.56697C18.8331 3.2189 18.4039 3 17.9386 3H13V5C13 5.55228 13.4477 6 14 6H19.9789ZM13.5745 16.7545L11.993 15.1813L10.4227 16.7545C10.0998 17.0781 9.5652 17.0781 9.24223 16.7545C8.91926 16.431 8.91926 15.8954 9.24223 15.5718L10.8125 13.9986L9.24223 12.4254C8.91926 12.1018 8.91926 11.5662 9.24223 11.2427C9.5652 10.9191 10.0998 10.9191 10.4227 11.2427L11.993 12.8159L13.5745 11.2427C13.8863 10.9303 14.4432 10.9303 14.755 11.2427C15.078 11.5662 15.078 12.1018 14.755 12.4254L13.1847 13.9986L14.755 15.5718C14.9109 15.728 15 15.94 15 16.1632C15 16.3863 14.9109 16.5983 14.755 16.7545C14.5991 16.9107 14.3875 17 14.1647 17C13.942 17 13.7304 16.9107 13.5745 16.7545Z" fill="currentColor"/>
</svg>
